<?xml version="1.0" encoding="utf-8"?>
    <svg version="1.1" xmlns="http://www.w3.org/2000/svg" xmlns:xlink="http://www.w3.org/1999/xlink" x="0px" y="0px" width="493px" height="274px" viewBox="0 0 493 274" enable-background="new 0 0 493 274" xml:space="preserve">
        <g>
            <g class='countries zoomable'>
                <g id="Canada" code="CA" ticker="MSCACADP">
<path fill="#eaeaea" stroke="#ffffff" stroke-width="0.5" stroke-linecap="round" stroke-linejoin="round" stroke-miterlimit="10" d="M120.192,58.789l10.486-10.487l-23.051-23.05l6.143-6.142H69.938L59.545,29.503H41.204v42.032l5.663,5.663l-1.085,1.084l8.71,8.709h37.702l7.935-7.935l13.087,13.087l5.152-5.152h17.202l6.412-6.413L120.192,58.789z M105.474,46.376v22.861L87.81,51.573l9.541-9.542v-4.063h16.533L105.474,46.376z" /> </g>
                <g id="United_States" code="US" ticker="!MSTAR">
<polygon fill="#eaeaea" stroke="#ffffff" stroke-width="0.5" stroke-linecap="round" stroke-linejoin="round" stroke-miterlimit="10" points="41.204,71.536 41.204,29.503 27.013,29.503 16.099,40.417 16.099,54.738 30.085,68.724 24.698,74.11 24.698,79.351 28.167,79.35137.509,70.009 45.782,78.283 46.867,77.198 " />
<polygon fill="#eaeaea" stroke="#ffffff" stroke-width="0.5" stroke-linecap="round" stroke-linejoin="round" stroke-miterlimit="10" points="118.368,86.992 113.216,92.144 106.755,98.604 106.755,86.992 92.194,86.992 54.492,86.992 54.492,107.363 64.126,116.99776.177,116.997 90.9,131.72 90.9,116.997 101.513,116.997 104.82,120.304 104.82,125.42 108.283,121.957 108.283,116.356118.339,106.301 118.339,95.365 127.197,95.365 135.57,86.992 " /> </g>
                <g id="Belize">
<rect x="98.78" y="142.55" fill="#eaeaea" stroke="#ffffff" stroke-width="0.5" stroke-linecap="round" stroke-linejoin="round" stroke-miterlimit="10" width="2.514" height="2.683" /> </g>
                <g id="Iceland">
<polygon fill="#eaeaea" stroke="#ffffff" stroke-width="0.5" stroke-linecap="round" stroke-linejoin="round" stroke-miterlimit="10" points="171.562,48.041 166.286,48.041 166.286,53.24 168.989,55.944 174.228,50.707 " /> </g>
                <g id="Greenland">
<polygon fill="#eaeaea" stroke="#ffffff" stroke-width="0.5" stroke-linecap="round" stroke-linejoin="round" stroke-miterlimit="10" points="128.55,25.817 134.306,31.574 137.954,31.574 154.412,48.032 160.028,42.416 160.028,21.558 150.058,11.587 142.78,11.587 " /> </g>
                <g id="Mexico" code="MX" ticker="MSMXMXNP">
<polygon fill="#eaeaea" stroke="#ffffff" stroke-width="0.5" stroke-linecap="round" stroke-linejoin="round" stroke-miterlimit="10" points="95.628,138.625 90.9,138.625 90.9,131.72 76.177,116.997 64.126,116.997 54.492,107.363 54.492,116.925 88.51,150.94396.901,142.55 98.78,142.55 101.294,142.55 101.294,132.958 " /> </g>
                <g id="Cuba">
<polygon fill="#eaeaea" stroke="#ffffff" stroke-width="0.5" stroke-linecap="round" stroke-linejoin="round" stroke-miterlimit="10" points="109.548,128.465 105.424,128.465 109.936,132.977 114.06,132.977 " /> </g>
                <g id="Haiti">
<polygon fill="#eaeaea" stroke="#ffffff" stroke-width="0.5" stroke-linecap="round" stroke-linejoin="round" stroke-miterlimit="10" points="114.386,133.611 116.175,135.4 116.226,135.4 118.015,133.611 " /> </g>
                <g id="Dominican_Republic">
<polygon fill="#eaeaea" stroke="#ffffff" stroke-width="0.5" stroke-linecap="round" stroke-linejoin="round" stroke-miterlimit="10" points="118.03,133.611 116.241,135.4 120.899,135.4 119.109,133.611 " /> </g>
                <g id="Guatemala">
<polygon fill="#eaeaea" stroke="#ffffff" stroke-width="0.5" stroke-linecap="round" stroke-linejoin="round" stroke-miterlimit="10" points="96.901,142.55 88.51,150.943 88.511,150.944 98.78,150.944 98.78,149.495 98.78,145.233 98.78,142.55 " /> </g>
                <g id="Honduras">
<polygon fill="#eaeaea" stroke="#ffffff" stroke-width="0.5" stroke-linecap="round" stroke-linejoin="round" stroke-miterlimit="10" points="101.294,145.233 98.78,145.233 98.78,149.495 101.894,149.495 101.905,149.482 106.155,145.233 " /> </g>
                <g id="Nicarauga">
<polygon fill="#eaeaea" stroke="#ffffff" stroke-width="0.5" stroke-linecap="round" stroke-linejoin="round" stroke-miterlimit="10" points="101.905,149.495 106.176,149.495 106.176,145.233 106.155,145.233 101.905,149.482 " /> </g>
                <g id="Panama">
<polygon fill="#eaeaea" stroke="#ffffff" stroke-width="0.5" stroke-linecap="round" stroke-linejoin="round" stroke-miterlimit="10" points="110.167,150.944 111.616,149.495 106.176,149.495 106.176,150.944 " /> </g>
                <g id="Costa_Rica">
<rect x="101.905" y="149.495" fill="#eaeaea" stroke="#ffffff" stroke-width="0.5" stroke-linecap="round" stroke-linejoin="round" stroke-miterlimit="10" width="4.271" height="1.449" /> </g>
                <g id="El_Savador">
<polygon fill="#eaeaea" stroke="#ffffff" stroke-width="0.5" stroke-linecap="round" stroke-linejoin="round" stroke-miterlimit="10" points="101.894,149.495 98.78,149.495 98.78,150.944 101.905,150.944 101.905,149.495 " /> </g>
                <g id="Columbia" code="CO" ticker="MSCOCOPP">
<polygon fill="#eaeaea" stroke="#ffffff" stroke-width="0.5" stroke-linecap="round" stroke-linejoin="round" stroke-miterlimit="10" points="111.616,146.055 111.616,149.495 110.167,150.944 103.327,157.784 106.503,160.96 110.515,164.972 110.525,164.983 116.438,159.07116.438,141.234 " /> </g>
                <g id="Venezuela">
<polygon fill="#eaeaea" stroke="#ffffff" stroke-width="0.5" stroke-linecap="round" stroke-linejoin="round" stroke-miterlimit="10" points="116.438,141.234 116.438,159.07 126.097,149.412 126.097,141.234 " /> </g>
                <g id="Ghyana">
<polygon fill="#eaeaea" stroke="#ffffff" stroke-width="0.5" stroke-linecap="round" stroke-linejoin="round" stroke-miterlimit="10" points="126.188,141.234 126.097,141.234 126.097,149.412 128.729,149.412 128.729,143.774 " /> </g>
                <g id="Suriname">
<polygon fill="#eaeaea" stroke="#ffffff" stroke-width="0.5" stroke-linecap="round" stroke-linejoin="round" stroke-miterlimit="10" points="131.372,149.412 131.372,146.417 128.729,143.774 128.729,149.412 " /> </g>
                <g id="French_Guiana">
<polygon fill="#eaeaea" stroke="#ffffff" stroke-width="0.5" stroke-linecap="round" stroke-linejoin="round" stroke-miterlimit="10" points="134.366,149.412 131.372,146.417 131.372,149.412 " /> </g>
                <g id="Brazil" code="BR" ticker="MSBRBRLP">
<polygon fill="#eaeaea" stroke="#ffffff" stroke-width="0.5" stroke-linecap="round" stroke-linejoin="round" stroke-miterlimit="10" points="134.366,149.412 131.372,149.412 128.729,149.412 126.097,149.412 116.438,159.07 110.525,164.983 110.515,164.994110.515,176.887 111.577,176.887 118.796,176.887 128.181,186.271 139.879,197.97 133.946,203.902 129.761,208.088 138.82,217.147142.068,213.9 142.068,209.498 158.658,192.907 158.658,173.704 " /> </g>
                <g id="Ecuador">
<polygon fill="#eaeaea" stroke="#ffffff" stroke-width="0.5" stroke-linecap="round" stroke-linejoin="round" stroke-miterlimit="10" points="103.327,157.784 97.586,163.525 97.586,169.877 106.503,160.96 " /> </g>
                <g id="Peru" code="PE" ticker="MSPEPENP">
<polygon fill="#eaeaea" stroke="#ffffff" stroke-width="0.5" stroke-linecap="round" stroke-linejoin="round" stroke-miterlimit="10" points="110.515,176.887 110.515,164.994 110.515,164.972 106.503,160.96 97.586,169.877 97.586,184.025 108.468,194.908 111.577,194.908111.577,176.887 " /> </g>
                <g id="Bolivia">
<polygon fill="#eaeaea" stroke="#ffffff" stroke-width="0.5" stroke-linecap="round" stroke-linejoin="round" stroke-miterlimit="10" points="118.796,176.887 111.577,176.887 111.577,194.908 111.577,196.295 118.156,196.295 122.248,192.204 128.181,186.271 " /> </g>
                <g id="Paraguay">
<rect x="126.869" y="186.815" transform="matrix(-0.7071 0.7071 -0.7071 -0.7071 361.6846 240.3674)" fill="#eaeaea" stroke="#ffffff" stroke-width="0.5" stroke-linecap="round" stroke-linejoin="round" stroke-miterlimit="10" width="8.39" height="16.544" /> </g>
                <g id="Argentina">
<polygon fill="#eaeaea" stroke="#ffffff" stroke-width="0.5" stroke-linecap="round" stroke-linejoin="round" stroke-miterlimit="10" points="129.761,208.088 133.946,203.902 122.248,192.204 118.156,196.295 111.577,196.295 111.577,218.659 106.655,223.581106.655,249.914 112.622,249.914 112.622,258.736 118.517,258.736 118.517,243.602 120.774,243.602 120.774,235.193132.096,223.872 123.036,214.812 " /> </g>
                <g id="Uruguay">
<rect x="124.522" y="211.225" transform="matrix(-0.7071 -0.7071 0.7071 -0.7071 70.7876 461.2811)" fill="#eaeaea" stroke="#ffffff" stroke-width="0.5" stroke-linecap="round" stroke-linejoin="round" stroke-miterlimit="10" width="12.812" height="9.51" /> </g>
                <g id="Chile" code="CL" ticker="MSCLCLPP">
<polygon fill="#eaeaea" stroke="#ffffff" stroke-width="0.5" stroke-linecap="round" stroke-linejoin="round" stroke-miterlimit="10" points="106.655,249.914 106.655,223.581 111.577,218.659 111.577,196.295 111.577,194.908 108.468,194.908 108.468,218.164103.79,222.842 103.79,249.914 112.612,258.736 112.622,258.736 112.622,249.914 " /> </g>
                <g id="South_Africa" code="ZA" ticker="MSZAZARP">
<polygon fill="#eaeaea" stroke="#ffffff" stroke-width="0.5" stroke-linecap="round" stroke-linejoin="round" stroke-miterlimit="10" points="277.731,205.016 267.883,214.865 258.749,214.865 258.749,224.853 273.188,224.853 285.276,212.765 285.276,205.016 " /> </g>
                <g id="Nambia">
<polygon fill="#eaeaea" stroke="#ffffff" stroke-width="0.5" stroke-linecap="round" stroke-linejoin="round" stroke-miterlimit="10" points="267.883,198.107 254.942,198.107 258.749,201.914 258.749,214.865 267.883,214.865 " /> </g>
                <g id="Botswana">
<polygon fill="#eaeaea" stroke="#ffffff" stroke-width="0.5" stroke-linecap="round" stroke-linejoin="round" stroke-miterlimit="10" points="270.702,198.107 267.883,198.107 267.883,214.865 277.731,205.016 277.731,198.107 " /> </g>
                <g id="Madagascar">
<polygon fill="#eaeaea" stroke="#ffffff" stroke-width="0.5" stroke-linecap="round" stroke-linejoin="round" stroke-miterlimit="10" points="301.763,208.657 309.911,200.508 309.911,187.397 301.763,195.546 " /> </g>
                <g id="Mozambique">
<polygon fill="#eaeaea" stroke="#ffffff" stroke-width="0.5" stroke-linecap="round" stroke-linejoin="round" stroke-miterlimit="10" points="287.392,188.477 287.362,188.477 285.276,190.563 285.276,205.016 285.276,212.765 289.385,208.657 289.385,201.895296.954,194.325 296.954,188.477 " /> </g>
                <g id="Zimbabwe">
<polygon fill="#eaeaea" stroke="#ffffff" stroke-width="0.5" stroke-linecap="round" stroke-linejoin="round" stroke-miterlimit="10" points="277.731,198.107 277.731,205.016 285.276,205.016 285.276,190.563 " /> </g>
                <g id="Angola">
<polygon fill="#eaeaea" stroke="#ffffff" stroke-width="0.5" stroke-linecap="round" stroke-linejoin="round" stroke-miterlimit="10" points="266.18,177.127 254.942,177.127 254.942,198.107 267.883,198.107 270.702,198.107 270.702,181.649 " /> </g>
                <g id="Zambia">
<polygon fill="#eaeaea" stroke="#ffffff" stroke-width="0.5" stroke-linecap="round" stroke-linejoin="round" stroke-miterlimit="10" points="279.897,180.982 279.897,190.844 270.702,181.649 270.702,198.107 277.731,198.107 285.276,190.563 287.362,188.477287.377,188.462 " /> </g>
                <g id="Democratic_Republic_of_Congo">
<polygon fill="#eaeaea" stroke="#ffffff" stroke-width="0.5" stroke-linecap="round" stroke-linejoin="round" stroke-miterlimit="10" points="268.964,163.105 254.942,177.127 266.18,177.127 270.702,181.649 279.897,190.844 279.897,180.982 279.897,170.395279.897,163.105 " /> </g>
                <g id="Tanzania">
<polygon fill="#eaeaea" stroke="#ffffff" stroke-width="0.5" stroke-linecap="round" stroke-linejoin="round" stroke-miterlimit="10" points="287.392,188.477 287.377,188.462 287.362,188.477 " />
<polygon fill="#eaeaea" stroke="#ffffff" stroke-width="0.5" stroke-linecap="round" stroke-linejoin="round" stroke-miterlimit="10" points="286.804,170.395 279.897,170.395 279.897,180.982 287.377,188.462 287.392,188.477 296.954,188.477 296.954,180.545 " /> </g>
                <g id="Kenya">
<polygon fill="#eaeaea" stroke="#ffffff" stroke-width="0.5" stroke-linecap="round" stroke-linejoin="round" stroke-miterlimit="10" points="296.942,163.105 296.938,163.105 290.519,163.105 286.804,163.105 286.804,170.395 296.954,180.545 296.954,169.086 " /> </g>
                <g id="Uganda">
<rect x="279.897" y="163.105" fill="#eaeaea" stroke="#ffffff" stroke-width="0.5" stroke-linecap="round" stroke-linejoin="round" stroke-miterlimit="10" width="6.906" height="7.29" /> </g>
                <g id="Congo">
<polygon fill="#eaeaea" stroke="#ffffff" stroke-width="0.5" stroke-linecap="round" stroke-linejoin="round" stroke-miterlimit="10" points="262.423,163.105 254.942,170.586 254.942,177.127 268.964,163.105 " /> </g>
                <g id="Somalia">
<polygon fill="#eaeaea" stroke="#ffffff" stroke-width="0.5" stroke-linecap="round" stroke-linejoin="round" stroke-miterlimit="10" points="298.216,143.453 298.216,149.25 304.505,155.539 296.942,163.101 296.942,163.105 296.954,169.086 310.401,155.639 " /> </g>
                <g id="Ethiopia">
<polyline fill="#eaeaea" stroke="#ffffff" stroke-width="0.5" stroke-linecap="round" stroke-linejoin="round" stroke-miterlimit="10" points="296.942,163.105 296.942,163.102 304.505,155.54 290.519,141.554 290.519,163.105 296.938,163.105 296.942,163.102 304.505,155.54" /> </g>
                <g id="Sudan">
<polygon fill="#eaeaea" stroke="#ffffff" stroke-width="0.5" stroke-linecap="round" stroke-linejoin="round" stroke-miterlimit="10" points="270.241,135.756 270.241,143.94 270.241,147.495 267.265,150.472 279.897,163.105 286.804,163.105 290.519,163.105290.519,141.553 290.519,135.756 " /> </g>
                <g id="Central_African_Republic">
<polygon fill="#eaeaea" stroke="#ffffff" stroke-width="0.5" stroke-linecap="round" stroke-linejoin="round" stroke-miterlimit="10" points="267.265,150.472 257.948,159.789 257.948,163.105 262.423,163.105 268.964,163.105 279.897,163.105 " /> </g>
                <g id="Gabon">
<polygon fill="#eaeaea" stroke="#ffffff" stroke-width="0.5" stroke-linecap="round" stroke-linejoin="round" stroke-miterlimit="10" points="247.461,163.105 254.942,170.586 262.423,163.105 " /> </g>
                <g id="Chad">
<polygon fill="#eaeaea" stroke="#ffffff" stroke-width="0.5" stroke-linecap="round" stroke-linejoin="round" stroke-miterlimit="10" points="260.876,134.575 255.786,134.575 257.948,136.736 257.948,149.951 257.948,154.676 257.948,159.789 267.265,150.472270.241,147.495 270.241,143.94 " /> </g>
                <g id="Cameroon">
<polygon fill="#eaeaea" stroke="#ffffff" stroke-width="0.5" stroke-linecap="round" stroke-linejoin="round" stroke-miterlimit="10" points="249.519,163.105 257.948,163.105 257.948,159.789 257.948,154.676 " /> </g>
                <g id="Nigeria">
<polygon fill="#eaeaea" stroke="#ffffff" stroke-width="0.5" stroke-linecap="round" stroke-linejoin="round" stroke-miterlimit="10" points="257.948,154.676 257.948,149.951 241.454,149.951 241.454,165.581 249.919,165.581 247.461,163.105 249.519,163.105 " /> </g>
                <g id="Niger">
<polygon fill="#eaeaea" stroke="#ffffff" stroke-width="0.5" stroke-linecap="round" stroke-linejoin="round" stroke-miterlimit="10" points="255.786,134.575 251.48,130.269 240.972,140.778 240.972,140.778 240.972,146.233 239.214,146.233 239.214,149.951241.454,149.951 257.948,149.951 257.948,136.736 " /> </g>
                <g id="Enitrea">
<polygon fill="#eaeaea" stroke="#ffffff" stroke-width="0.5" stroke-linecap="round" stroke-linejoin="round" stroke-miterlimit="10" points="298.216,149.25 298.216,143.453 290.519,135.756 290.519,141.553 " /> </g>
                <g id="Egypt" code="EG" ticker="MSEGEGPP">
<polygon fill="#eaeaea" stroke="#ffffff" stroke-width="0.5" stroke-linecap="round" stroke-linejoin="round" stroke-miterlimit="10" points="284.635,129.873 284.635,120.314 284.635,117.557 284.635,115.766 283.16,115.766 270.241,115.766 270.241,135.756290.519,135.756 " /> </g>
                <g id="Libya">
<polygon fill="#eaeaea" stroke="#ffffff" stroke-width="0.5" stroke-linecap="round" stroke-linejoin="round" stroke-miterlimit="10" points="251.48,115.766 251.48,130.269 255.786,134.575 260.876,134.575 270.241,143.94 270.241,135.756 270.241,115.766 " /> </g>
                <g id="Algeria">
<polygon fill="#eaeaea" stroke="#ffffff" stroke-width="0.5" stroke-linecap="round" stroke-linejoin="round" stroke-miterlimit="10" points="248.853,115.766 245.234,112.148 230.072,127.311 228.839,128.545 228.839,128.646 240.972,140.778 240.972,140.778251.48,130.269 251.48,115.766 " /> </g>
                <g id="Morocco" code="MA" ticker="MSMAMADP">
<polygon fill="#eaeaea" stroke="#ffffff" stroke-width="0.5" stroke-linecap="round" stroke-linejoin="round" stroke-miterlimit="10" points="241.908,108.822 223.419,127.311 230.072,127.311 245.234,112.148 " /> </g>
                <g id="Mali">
<polygon fill="#eaeaea" stroke="#ffffff" stroke-width="0.5" stroke-linecap="round" stroke-linejoin="round" stroke-miterlimit="10" points="228.839,128.646 228.839,144.957 220.185,144.957 220.185,150.583 226.38,150.583 226.38,152.006 229.009,152.006 234.782,146.233239.214,146.233 240.972,146.233 240.972,140.778 " /> </g>
                <g id="Western_Sahara">
<polygon fill="#eaeaea" stroke="#ffffff" stroke-width="0.5" stroke-linecap="round" stroke-linejoin="round" stroke-miterlimit="10" points="223.419,127.311 211.382,139.347 218.036,139.347 228.788,128.595 228.839,128.545 230.072,127.311 " /> </g>
                <g id="Mauritania">
<polygon fill="#eaeaea" stroke="#ffffff" stroke-width="0.5" stroke-linecap="round" stroke-linejoin="round" stroke-miterlimit="10" points="228.788,128.595 228.839,128.646 228.839,128.545 " />
<polygon fill="#eaeaea" stroke="#ffffff" stroke-width="0.5" stroke-linecap="round" stroke-linejoin="round" stroke-miterlimit="10" points="228.788,128.595 218.036,139.347 211.382,139.347 211.382,144.957 220.185,144.957 228.839,144.957 228.839,128.646 " /> </g>
                <g id="Burkina_Faso">
<polygon fill="#eaeaea" stroke="#ffffff" stroke-width="0.5" stroke-linecap="round" stroke-linejoin="round" stroke-miterlimit="10" points="234.782,146.233 229.009,152.006 233.353,152.006 237.78,152.006 239.214,152.006 239.214,149.951 239.214,146.233 " /> </g>
                <g id="Benin">
<polygon fill="#eaeaea" stroke="#ffffff" stroke-width="0.5" stroke-linecap="round" stroke-linejoin="round" stroke-miterlimit="10" points="239.214,149.951 239.214,152.006 239.214,165.581 241.454,165.581 241.454,149.951 " /> </g>
                <g id="Togo">
<rect x="237.78" y="152.006" fill="#eaeaea" stroke="#ffffff" stroke-width="0.5" stroke-linecap="round" stroke-linejoin="round" stroke-miterlimit="10" width="1.434" height="13.574" /> </g>
                <g id="Ghana">
<rect x="233.353" y="152.006" fill="#eaeaea" stroke="#ffffff" stroke-width="0.5" stroke-linecap="round" stroke-linejoin="round" stroke-miterlimit="10" width="4.428" height="13.574" /> </g>
                <g id="Côte_d_x27_Lvoire">
<polygon fill="#eaeaea" stroke="#ffffff" stroke-width="0.5" stroke-linecap="round" stroke-linejoin="round" stroke-miterlimit="10" points="229.009,152.006 226.38,152.006 226.38,159.761 226.38,165.581 233.353,165.581 233.353,152.006 " /> </g>
                <g id="Liberia">
<polygon fill="#eaeaea" stroke="#ffffff" stroke-width="0.5" stroke-linecap="round" stroke-linejoin="round" stroke-miterlimit="10" points="221.866,155.247 221.866,161.066 226.38,165.581 226.38,159.761 " /> </g>
                <g id="Guinea">
<polygon fill="#eaeaea" stroke="#ffffff" stroke-width="0.5" stroke-linecap="round" stroke-linejoin="round" stroke-miterlimit="10" points="220.185,150.583 216.459,150.583 213.921,153.121 217.56,156.76 220.47,153.851 221.866,155.247 226.38,159.761 226.38,152.006226.38,150.583 " /> </g>
                <g id="Sierra_Leone">
<polygon fill="#eaeaea" stroke="#ffffff" stroke-width="0.5" stroke-linecap="round" stroke-linejoin="round" stroke-miterlimit="10" points="220.47,153.851 217.56,156.76 221.866,161.066 221.866,155.247 " /> </g>
                <g id="Senegal">
<polygon fill="#eaeaea" stroke="#ffffff" stroke-width="0.5" stroke-linecap="round" stroke-linejoin="round" stroke-miterlimit="10" points="211.382,144.957 211.382,147.771 217.431,147.771 217.431,148.875 211.382,148.875 211.382,150.583 216.459,150.583220.185,150.583 220.185,144.957 " /> </g>
                <g id="Guinea-Bissau">
<polygon fill="#eaeaea" stroke="#ffffff" stroke-width="0.5" stroke-linecap="round" stroke-linejoin="round" stroke-miterlimit="10" points="211.382,150.583 213.921,153.121 216.459,150.583 " /> </g>
                <g id="The_Gambia">
<rect x="211.382" y="147.771" fill="#eaeaea" stroke="#ffffff" stroke-width="0.5" stroke-linecap="round" stroke-linejoin="round" stroke-miterlimit="10" width="6.049" height="1.104" /> </g>
                <g id="Russia" code="RU" ticker="MSRURUBP">
<polygon fill="#eaeaea" stroke="#ffffff" stroke-width="0.5" stroke-linecap="round" stroke-linejoin="round" stroke-miterlimit="10" points="449.889,39.75 439.632,29.493 418.198,29.493 407.826,19.121 357.133,19.121 338.728,37.526 325.669,24.468 306.297,43.841294.054,31.598 285.998,31.598 285.998,45.916 289.949,49.867 284.073,55.743 284.073,59.869 284.073,64.553 284.073,66.132292.795,74.854 301.409,83.469 295.287,89.592 295.294,89.598 299.829,94.133 312.249,94.133 312.249,90.083 316.905,90.083318.978,90.083 318.978,80.547 324.485,75.04 329.62,75.04 339.522,65.136 360.852,65.136 372.255,76.539 372.458,76.539388.432,76.539 390.809,74.162 406.782,74.162 418.851,62.094 437.247,80.49 442.023,75.714 431.446,65.136 438.608,57.974457.609,76.976 486.417,48.168 486.417,39.75 " /> </g>
                <g id="Kazakhstan">
<polygon fill="#eaeaea" stroke="#ffffff" stroke-width="0.5" stroke-linecap="round" stroke-linejoin="round" stroke-miterlimit="10" points="372.255,76.539 360.852,65.136 339.522,65.136 329.62,75.04 324.485,75.04 318.978,80.547 318.978,90.083 321.696,90.083321.731,90.083 328.28,90.083 333.689,95.492 345.974,95.492 353.505,95.492 372.356,76.641 " /> </g>
                <g id="Mongolia">
<polygon fill="#eaeaea" stroke="#ffffff" stroke-width="0.5" stroke-linecap="round" stroke-linejoin="round" stroke-miterlimit="10" points="406.782,74.162 406.782,74.162 390.809,74.162 388.432,76.539 372.458,76.539 372.356,76.641 386.926,91.21 402.733,91.21413.282,80.662 " /> </g>
                <g id="China" code="CN" ticker="MSCNCNYP">
<polygon fill="#eaeaea" stroke="#ffffff" stroke-width="0.5" stroke-linecap="round" stroke-linejoin="round" stroke-miterlimit="10" points="418.851,62.094 406.782,74.162 406.782,74.162 413.282,80.662 402.733,91.21 386.926,91.21 372.356,76.641 353.505,95.492349.071,99.926 344.071,104.926 337.056,111.941 337.067,111.953 349.578,111.953 349.578,120.253 354.009,124.684360.278,130.953 360.288,130.963 369.294,130.963 376.417,130.963 376.417,137.64 379.333,134.724 382.932,131.125384.889,133.083 408.42,133.083 408.42,109.317 409.843,107.894 409.956,107.78 420.989,96.748 437.247,80.49 " /> </g>
                <g id="North_Korea">
<polygon fill="#eaeaea" stroke="#ffffff" stroke-width="0.5" stroke-linecap="round" stroke-linejoin="round" stroke-miterlimit="10" points="409.956,107.78 414.003,111.828 418.014,111.828 418.014,99.723 " /> </g>
                <g id="South_Korea" code="KR" ticker="MSKRKRWP">
<polygon fill="#eaeaea" stroke="#ffffff" stroke-width="0.5" stroke-linecap="round" stroke-linejoin="round" stroke-miterlimit="10" points="418.014,115.838 418.014,111.828 414.003,111.828 " /> </g>
                <g id="Japan" code="JP" ticker="MSJPJPYP">
<polygon fill="#eaeaea" stroke="#ffffff" stroke-width="0.5" stroke-linecap="round" stroke-linejoin="round" stroke-miterlimit="10" points="457.785,102.753 457.785,89.308 430.921,116.171 444.367,116.171 " /> </g>
                <g id="Taiwan" code="TW" ticker="MSTWTWDP">
<polygon fill="#eaeaea" stroke="#ffffff" stroke-width="0.5" stroke-linecap="round" stroke-linejoin="round" stroke-miterlimit="10" points="413.239,130.373 415.44,132.572 417.642,130.381 415.44,128.183 " /> </g>
                <g id="Hong_Kong" code="HK" ticker="MSHKHKDP">
<polygon fill="#eaeaea" stroke="#ffffff" stroke-width="0.5" stroke-linecap="round" stroke-linejoin="round" stroke-miterlimit="10" points="413.014,130.381 410.812,128.183 408.611,130.373 410.812,132.572 " /> </g>
                <g id="Philippines" code="PH" ticker="MSPHPHPP">
<polygon fill="#eaeaea" stroke="#ffffff" stroke-width="0.5" stroke-linecap="round" stroke-linejoin="round" stroke-miterlimit="10" points="414.701,154.952 423.99,145.663 414.701,136.374 " /> </g>
                <g id="Papa_New_Guinea">
<polygon fill="#eaeaea" stroke="#ffffff" stroke-width="0.5" stroke-linecap="round" stroke-linejoin="round" stroke-miterlimit="10" points="442.142,178.822 442.199,178.879 454.906,166.172 442.142,166.172 " /> </g>
                <g id="New_Zealand" ticker="MSNZNZDP">
<polygon fill="#eaeaea" stroke="#ffffff" stroke-width="0.5" stroke-linecap="round" stroke-linejoin="round" stroke-miterlimit="10" points="464.454,240.654 474.233,230.875 474.233,216.863 457.448,233.648 " /> </g>
                <g id="Australia" code="AU" ticker="MSAUAUDP">
<polygon fill="#eaeaea" stroke="#ffffff" stroke-width="0.5" stroke-linecap="round" stroke-linejoin="round" stroke-miterlimit="10" points="413.28,184.323 391.667,205.936 391.667,225.125 425.552,225.125 438.936,238.509 453.212,224.232 453.212,199.282438.252,184.323 " /> </g>
                <g id="Indonesia" code="ID" ticker="MSIDIDRP">
<g>
<polygon fill="#eaeaea" stroke="#ffffff" stroke-width="0.5" stroke-linecap="round" stroke-linejoin="round" stroke-miterlimit="10" points="429.492,166.172 442.142,178.822 442.142,166.172 " />
<polygon fill="#eaeaea" stroke="#ffffff" stroke-width="0.5" stroke-linecap="round" stroke-linejoin="round" stroke-miterlimit="10" points="409.854,166.172 409.854,148.618 392.3,166.172 " />
<polygon fill="#eaeaea" stroke="#ffffff" stroke-width="0.5" stroke-linecap="round" stroke-linejoin="round" stroke-miterlimit="10" points="419.989,175.349 429.165,166.172 410.812,166.172 " />
<polygon fill="#eaeaea" stroke="#ffffff" stroke-width="0.5" stroke-linecap="round" stroke-linejoin="round" stroke-miterlimit="10" points="429.165,166.172 429.492,166.172 429.329,166.009 " /> </g>
                </g>
                <g id="Singapore" code="SG" ticker="MSSGSGDP">
<polygon fill="#eaeaea" stroke="#ffffff" stroke-width="0.5" stroke-linecap="round" stroke-linejoin="round" stroke-miterlimit="10" points="391.104,165.772 388.73,163.399 388.73,168.145 " /> </g>
                <g id="Malaysia" code="MY" ticker="MSMYMYRP">
<polygon fill="#eaeaea" stroke="#ffffff" stroke-width="0.5" stroke-linecap="round" stroke-linejoin="round" stroke-miterlimit="10" points="388.73,168.219 388.73,168.145 388.73,163.399 385.563,160.233 380.543,160.233 384.399,164.089 375.31,164.089 389.962,178.742399.254,178.742 " /> </g>
                <g id="Sir_Lanka">
<polygon fill="#eaeaea" stroke="#ffffff" stroke-width="0.5" stroke-linecap="round" stroke-linejoin="round" stroke-miterlimit="10" points="350.343,171.5 350.343,164.455 343.297,171.5 " /> </g>
                <g id="Vietnam">
<polygon fill="#eaeaea" stroke="#ffffff" stroke-width="0.5" stroke-linecap="round" stroke-linejoin="round" stroke-miterlimit="10" points="395.319,143.514 384.889,133.083 382.932,131.125 379.333,134.724 388.806,144.197 388.806,150.028 " /> </g>
                <g id="Laos">
<polygon fill="#eaeaea" stroke="#ffffff" stroke-width="0.5" stroke-linecap="round" stroke-linejoin="round" stroke-miterlimit="10" points="379.333,134.724 376.417,137.64 382.975,144.197 388.806,144.197 " /> </g>
                <g id="Cambodia">
<polygon fill="#eaeaea" stroke="#ffffff" stroke-width="0.5" stroke-linecap="round" stroke-linejoin="round" stroke-miterlimit="10" points="382.975,144.197 388.806,150.028 388.806,150.028 388.806,144.197 " /> </g>
                <g id="Thailand" code="TH" ticker="MSTHTHBP">
<polygon fill="#eaeaea" stroke="#ffffff" stroke-width="0.5" stroke-linecap="round" stroke-linejoin="round" stroke-miterlimit="10" points="382.975,144.197 376.417,137.64 376.417,150.844 382.203,156.631 388.806,150.028 " /> </g>
                <g id="Myanmar">
<polygon fill="#eaeaea" stroke="#ffffff" stroke-width="0.5" stroke-linecap="round" stroke-linejoin="round" stroke-miterlimit="10" points="366.477,140.903 376.417,150.844 376.417,137.64 376.417,130.963 " /> </g>
                <g id="India" code="IN" ticker="MSININRP">
<g>
<polygon fill="#eaeaea" stroke="#ffffff" stroke-width="0.5" stroke-linecap="round" stroke-linejoin="round" stroke-miterlimit="10" points="369.294,130.963 365.552,134.705 360.278,134.705 360.278,134.723 366.468,140.912 366.477,140.903 376.417,130.963 " />
<polygon fill="#eaeaea" stroke="#ffffff" stroke-width="0.5" stroke-linecap="round" stroke-linejoin="round" stroke-miterlimit="10" points="360.278,130.963 355.892,130.963 351.811,126.882 354.009,124.684 349.578,120.253 349.578,111.953 337.067,111.953342.188,117.073 334.303,124.958 339.298,129.953 339.298,168.082 360.278,147.102 360.278,134.723 360.261,134.705360.278,134.705 " /> </g>
                </g>
                <g id="Bangladesh">
<polygon fill="#eaeaea" stroke="#ffffff" stroke-width="0.5" stroke-linecap="round" stroke-linejoin="round" stroke-miterlimit="10" points="360.278,134.723 360.278,147.102 365.477,141.903 366.468,140.912 " /> </g>
                <g id="Bhutan">
<polygon fill="#eaeaea" stroke="#ffffff" stroke-width="0.5" stroke-linecap="round" stroke-linejoin="round" stroke-miterlimit="10" points="360.288,130.963 360.278,130.963 360.278,134.705 365.552,134.705 369.294,130.963 " /> </g>
                <g id="Nepal">
<polygon fill="#eaeaea" stroke="#ffffff" stroke-width="0.5" stroke-linecap="round" stroke-linejoin="round" stroke-miterlimit="10" points="355.892,130.963 360.278,130.963 360.278,130.953 354.009,124.684 351.811,126.882 " /> </g>
                <g id="Yemen">
<polygon fill="#eaeaea" stroke="#ffffff" stroke-width="0.5" stroke-linecap="round" stroke-linejoin="round" stroke-miterlimit="10" points="316.144,132.84 306.651,142.332 306.645,150.32 320.134,136.831 " /> </g>
                <g id="Omen">
<polygon fill="#eaeaea" stroke="#ffffff" stroke-width="0.5" stroke-linecap="round" stroke-linejoin="round" stroke-miterlimit="10" points="324.024,124.958 319.481,129.502 316.144,132.84 320.134,136.831 328.016,128.949 " /> </g>
                <g id="United_Arab_Emirates">
<polygon fill="#eaeaea" stroke="#ffffff" stroke-width="0.5" stroke-linecap="round" stroke-linejoin="round" stroke-miterlimit="10" points="314.938,124.958 319.481,129.502 324.024,124.958 " /> </g>
                <g id="Saudi_Arabia">
<polygon fill="#eaeaea" stroke="#ffffff" stroke-width="0.5" stroke-linecap="round" stroke-linejoin="round" stroke-miterlimit="10" points="314.938,124.958 307.536,117.557 290.273,117.557 284.635,117.557 284.635,120.314 306.651,142.331 306.651,142.332316.144,132.84 319.481,129.502 " /> </g>
                <g id="Iraq">
<polygon fill="#eaeaea" stroke="#ffffff" stroke-width="0.5" stroke-linecap="round" stroke-linejoin="round" stroke-miterlimit="10" points="303.448,104.382 296.222,111.609 290.273,117.557 307.536,117.557 307.536,108.47 " /> </g>
                <g id="Kyrgyzstan">
<polygon fill="#eaeaea" stroke="#ffffff" stroke-width="0.5" stroke-linecap="round" stroke-linejoin="round" stroke-miterlimit="10" points="341.539,99.926 349.071,99.926 353.505,95.492 345.974,95.492 " /> </g>
                <g id="Tajikistan">
<polygon fill="#eaeaea" stroke="#ffffff" stroke-width="0.5" stroke-linecap="round" stroke-linejoin="round" stroke-miterlimit="10" points="336.539,104.926 344.071,104.926 349.071,99.926 341.539,99.926 " /> </g>
                <g id="Pakistan">
<polygon fill="#eaeaea" stroke="#ffffff" stroke-width="0.5" stroke-linecap="round" stroke-linejoin="round" stroke-miterlimit="10" points="337.067,111.953 337.044,111.953 332.21,116.787 332.21,124.958 334.303,124.958 342.188,117.073 " /> </g>
                <g id="Afghanistan">
<polygon fill="#eaeaea" stroke="#ffffff" stroke-width="0.5" stroke-linecap="round" stroke-linejoin="round" stroke-miterlimit="10" points="336.539,104.926 332.21,109.255 332.21,116.787 337.044,111.953 337.056,111.941 344.071,104.926 " /> </g>
                <g id="Uzbekistan">
<polygon fill="#eaeaea" stroke="#ffffff" stroke-width="0.5" stroke-linecap="round" stroke-linejoin="round" stroke-miterlimit="10" points="333.689,95.492 328.28,90.083 321.731,90.083 321.731,90.118 336.539,104.926 341.539,99.926 345.974,95.492 " /> </g>
                <g id="Turkmenistan">
<polygon fill="#eaeaea" stroke="#ffffff" stroke-width="0.5" stroke-linecap="round" stroke-linejoin="round" stroke-miterlimit="10" points="321.731,90.118 321.731,98.778 332.21,109.255 336.539,104.926 " /> </g>
                <g id="Iran">
<polygon fill="#eaeaea" stroke="#ffffff" stroke-width="0.5" stroke-linecap="round" stroke-linejoin="round" stroke-miterlimit="10" points="320.343,109.255 315.47,104.382 310.077,104.382 303.448,104.382 307.536,108.47 324.024,124.958 332.21,124.958 332.21,116.787332.21,109.255 " /> </g>
                <g id="Azerbaijan">
<polygon fill="#eaeaea" stroke="#ffffff" stroke-width="0.5" stroke-linecap="round" stroke-linejoin="round" stroke-miterlimit="10" points="312.249,101.162 312.249,97.796 303.491,97.796 310.077,104.382 315.47,104.382 " /> </g>
                <g id="Georgia">
<polygon fill="#eaeaea" stroke="#ffffff" stroke-width="0.5" stroke-linecap="round" stroke-linejoin="round" stroke-miterlimit="10" points="299.829,94.133 303.448,97.753 303.491,97.796 312.249,97.796 312.249,94.133 " /> </g>
                <g id="Armenia">
<polygon fill="#eaeaea" stroke="#ffffff" stroke-width="0.5" stroke-linecap="round" stroke-linejoin="round" stroke-miterlimit="10" points="303.491,97.796 303.448,97.796 303.448,104.382 303.448,104.382 310.077,104.382 " /> </g>
                <g id="Jordan">
<polygon fill="#eaeaea" stroke="#ffffff" stroke-width="0.5" stroke-linecap="round" stroke-linejoin="round" stroke-miterlimit="10" points="288.792,111.609 288.78,111.621 287.617,112.784 284.635,115.766 284.635,117.557 290.273,117.557 296.222,111.609 " /> </g>
                <g id="Syria">
<polygon fill="#eaeaea" stroke="#ffffff" stroke-width="0.5" stroke-linecap="round" stroke-linejoin="round" stroke-miterlimit="10" points="288.78,104.382 288.78,109.255 288.78,110.146 288.78,111.609 288.792,111.609 296.222,111.609 303.448,104.382 " /> </g>
                <g id="Palestinian_Territory">
<polygon fill="#eaeaea" stroke="#ffffff" stroke-width="0.5" stroke-linecap="round" stroke-linejoin="round" stroke-miterlimit="10" points="283.16,115.766 284.635,115.766 284.635,114.292 " /> </g>
                <g id="Israel" code="IL" ticker="MSILILSP">
<polygon fill="#eaeaea" stroke="#ffffff" stroke-width="0.5" stroke-linecap="round" stroke-linejoin="round" stroke-miterlimit="10" points="287.617,111.31 284.635,114.292 284.635,115.766 287.617,112.784 " /> </g>
                <g id="Lebanon">
<polygon fill="#eaeaea" stroke="#ffffff" stroke-width="0.5" stroke-linecap="round" stroke-linejoin="round" stroke-miterlimit="10" points="288.792,111.609 288.78,111.609 288.78,111.621 " />
<polygon fill="#eaeaea" stroke="#ffffff" stroke-width="0.5" stroke-linecap="round" stroke-linejoin="round" stroke-miterlimit="10" points="287.617,111.31 287.617,112.784 288.78,111.621 288.78,111.609 288.78,110.146 " /> </g>
                <g id="Turkey" code="TR" ticker="MSTRTRYP">
<polygon fill="#eaeaea" stroke="#ffffff" stroke-width="0.5" stroke-linecap="round" stroke-linejoin="round" stroke-miterlimit="10" points="282.61,97.796 275.007,97.796 273.05,97.796 279.636,104.382 288.78,104.382 303.448,104.382 303.448,104.382 303.448,97.796 " /> </g>
                <g id="Ukraine">
<polygon fill="#eaeaea" stroke="#ffffff" stroke-width="0.5" stroke-linecap="round" stroke-linejoin="round" stroke-miterlimit="10" points="295.294,89.598 295.287,89.592 295.28,89.598 " />
<polygon fill="#eaeaea" stroke="#ffffff" stroke-width="0.5" stroke-linecap="round" stroke-linejoin="round" stroke-miterlimit="10" points="292.795,74.854 288.113,79.537 279.378,79.537 279.378,84.647 282.61,87.88 284.328,89.598 295.28,89.598 295.287,89.592301.409,83.469 " /> </g>
                <g id="Belarus">
<polygon fill="#eaeaea" stroke="#ffffff" stroke-width="0.5" stroke-linecap="round" stroke-linejoin="round" stroke-miterlimit="10" points="284.073,66.132 279.378,70.828 279.378,79.537 288.113,79.537 292.795,74.854 " /> </g>
                <g id="Bulgaria">
<polygon fill="#eaeaea" stroke="#ffffff" stroke-width="0.5" stroke-linecap="round" stroke-linejoin="round" stroke-miterlimit="10" points="275.007,94.714 275.007,94.715 275.007,97.796 282.61,97.796 282.61,94.714 " /> </g>
                <g id="Romainia">
<polygon fill="#eaeaea" stroke="#ffffff" stroke-width="0.5" stroke-linecap="round" stroke-linejoin="round" stroke-miterlimit="10" points="279.378,84.647 274.922,89.104 272.159,91.866 275.007,94.714 282.61,94.714 282.61,89.598 282.61,87.88 " /> </g>
                <g id="Moldova">
<polygon fill="#eaeaea" stroke="#ffffff" stroke-width="0.5" stroke-linecap="round" stroke-linejoin="round" stroke-miterlimit="10" points="284.328,89.598 282.61,87.88 282.61,89.598 " /> </g>
                <g id="Greece" code="GR" ticker="MSGREURP">
<polygon fill="#eaeaea" stroke="#ffffff" stroke-width="0.5" stroke-linecap="round" stroke-linejoin="round" stroke-miterlimit="10" points="271.431,97.796 268.874,97.796 273.05,101.971 273.05,97.796 " /> </g>
                <g id="Macedonia">
<polygon fill="#eaeaea" stroke="#ffffff" stroke-width="0.5" stroke-linecap="round" stroke-linejoin="round" stroke-miterlimit="10" points="271.442,94.714 271.431,94.714 271.431,97.796 273.05,97.796 275.007,97.796 275.007,94.715 275.007,94.714 " /> </g>
                <g id="Italy" code="IT" ticker="MSITEURP">
<polygon fill="#eaeaea" stroke="#ffffff" stroke-width="0.5" stroke-linecap="round" stroke-linejoin="round" stroke-miterlimit="10" points="266.583,100.075 260.659,94.151 262.944,91.866 264.468,90.343 258.846,90.343 252.282,90.343 256.116,94.176 262.341,100.401262.341,104.317 " /> </g>
                <g id="Albania">
<polygon fill="#eaeaea" stroke="#ffffff" stroke-width="0.5" stroke-linecap="round" stroke-linejoin="round" stroke-miterlimit="10" points="268.019,94.714 265.792,94.714 268.874,97.796 271.431,97.796 271.431,94.714 " /> </g>
                <g id="Serbia">
<polygon fill="#eaeaea" stroke="#ffffff" stroke-width="0.5" stroke-linecap="round" stroke-linejoin="round" stroke-miterlimit="10" points="272.159,91.866 268.634,91.866 268.634,91.906 269.521,92.793 271.431,94.703 271.442,94.714 275.007,94.714 " /> </g>
                <g id="Bosnia_and_Herzegorina">
<polygon fill="#eaeaea" stroke="#ffffff" stroke-width="0.5" stroke-linecap="round" stroke-linejoin="round" stroke-miterlimit="10" points="271.431,94.714 271.442,94.714 271.431,94.703 " />
<polygon fill="#eaeaea" stroke="#ffffff" stroke-width="0.5" stroke-linecap="round" stroke-linejoin="round" stroke-miterlimit="10" points="269.521,92.793 266.097,92.793 268.019,94.714 271.431,94.714 271.431,94.703 " /> </g>
                <g id="Croatia">
<polygon fill="#eaeaea" stroke="#ffffff" stroke-width="0.5" stroke-linecap="round" stroke-linejoin="round" stroke-miterlimit="10" points="269.521,92.793 268.634,91.906 268.595,91.866 262.944,91.866 265.792,94.714 268.019,94.714 266.097,92.793 " /> </g>
                <g id="Hungary" code="HU" ticker="MSHUHUFP">
<polygon fill="#eaeaea" stroke="#ffffff" stroke-width="0.5" stroke-linecap="round" stroke-linejoin="round" stroke-miterlimit="10" points="274.921,89.104 268.634,89.104 268.634,90.343 268.634,91.866 272.159,91.866 274.922,89.104 " /> </g>
                <g id="Poland" code="PL" ticker="MSPLPLNP">
<polygon fill="#eaeaea" stroke="#ffffff" stroke-width="0.5" stroke-linecap="round" stroke-linejoin="round" stroke-miterlimit="10" points="266.95,70.828 266.95,83.35 269.168,83.35 272.879,87.061 274.921,89.104 274.922,89.104 279.378,84.647 279.378,79.537279.378,70.828 " /> </g>
                <g id="Slovakia">
<polygon fill="#eaeaea" stroke="#ffffff" stroke-width="0.5" stroke-linecap="round" stroke-linejoin="round" stroke-miterlimit="10" points="272.879,87.061 268.634,87.061 268.634,89.104 274.921,89.104 " /> </g>
                <g id="Slovenia">
<polygon fill="#eaeaea" stroke="#ffffff" stroke-width="0.5" stroke-linecap="round" stroke-linejoin="round" stroke-miterlimit="10" points="264.468,90.343 262.944,91.866 268.595,91.866 268.634,91.866 268.634,90.343 " /> </g>
                <g id="Austria" code="AT" ticker="MSATEURP">
<polygon fill="#eaeaea" stroke="#ffffff" stroke-width="0.5" stroke-linecap="round" stroke-linejoin="round" stroke-miterlimit="10" points="265.808,87.061 255.563,87.061 258.846,90.343 264.468,90.343 268.634,90.343 268.634,89.104 268.634,87.061 " /> </g>
                <g id="Czech_Republic" code="CZ" ticker="MSCZCZKP">
<polygon fill="#eaeaea" stroke="#ffffff" stroke-width="0.5" stroke-linecap="round" stroke-linejoin="round" stroke-miterlimit="10" points="269.168,83.35 266.95,83.35 262.097,83.35 265.808,87.061 268.634,87.061 272.879,87.061 " /> </g>
                <g id="Germany" code="DE" ticker="MSDEEURP">
<polygon fill="#eaeaea" stroke="#ffffff" stroke-width="0.5" stroke-linecap="round" stroke-linejoin="round" stroke-miterlimit="10" points="266.95,70.828 255.388,70.828 255.36,70.828 253.896,70.828 253.896,75.502 253.896,79.947 258.397,84.227 255.563,87.061265.808,87.061 262.097,83.35 266.95,83.35 " /> </g>
                <g id="Lithuania">
<polygon fill="#eaeaea" stroke="#ffffff" stroke-width="0.5" stroke-linecap="round" stroke-linejoin="round" stroke-miterlimit="10" points="273.225,64.553 266.95,70.828 279.378,70.828 284.073,66.132 284.073,64.553 " /> </g>
                <g id="Latvia">
<polygon fill="#eaeaea" stroke="#ffffff" stroke-width="0.5" stroke-linecap="round" stroke-linejoin="round" stroke-miterlimit="10" points="277.909,59.869 273.225,64.553 284.073,64.553 284.073,59.869 " /> </g>
                <g id="Estonia">
<polygon fill="#eaeaea" stroke="#ffffff" stroke-width="0.5" stroke-linecap="round" stroke-linejoin="round" stroke-miterlimit="10" points="282.035,55.743 277.909,59.869 284.073,59.869 284.073,55.743 " /> </g>
                <g id="Finland" code="FI" ticker="MSFIEURP">
<polygon fill="#eaeaea" stroke="#ffffff" stroke-width="0.5" stroke-linecap="round" stroke-linejoin="round" stroke-miterlimit="10" points="281.895,31.598 277.803,31.598 277.803,35.679 277.803,46.901 277.803,48.414 277.803,54.111 285.998,45.916 285.998,31.598 " /> </g>
                <g id="Sweden" code="SE" ticker="MSSESEKP">
<polyline fill="#eaeaea" stroke="#ffffff" stroke-width="0.5" stroke-linecap="round" stroke-linejoin="round" stroke-miterlimit="10" points="259.269,65.435 277.803,46.901 277.803,35.679 259.258,54.224 259.258,58.757 259.258,65.435 " /> </g>
                <g id="Norway" code="NO" ticker="MSNONOKP">
<polygon fill="#eaeaea" stroke="#ffffff" stroke-width="0.5" stroke-linecap="round" stroke-linejoin="round" stroke-miterlimit="10" points="271.362,35.679 253.886,53.156 253.886,64.13 259.258,58.757 259.258,54.224 277.803,35.679 " /> </g>
                <g id="Denmark" code="DK" ticker="MSDKDKKP">
<polygon fill="#eaeaea" stroke="#ffffff" stroke-width="0.5" stroke-linecap="round" stroke-linejoin="round" stroke-miterlimit="10" points="259.269,65.435 255.36,65.435 255.36,70.828 255.388,70.828 260.78,65.435 " /> </g>
                <g id="Netherlands" code="NL" ticker="MSNLEURP">
<polygon fill="#eaeaea" stroke="#ffffff" stroke-width="0.5" stroke-linecap="round" stroke-linejoin="round" stroke-miterlimit="10" points="253.896,70.828 249.22,75.502 253.896,75.502 " /> </g>
                <g id="Switzerland" code="CH" ticker="MSCHCHFP">
<polygon fill="#eaeaea" stroke="#ffffff" stroke-width="0.5" stroke-linecap="round" stroke-linejoin="round" stroke-miterlimit="10" points="255.563,87.061 252.282,90.343 258.846,90.343 " /> </g>
                <g id="Belgium" code="BE" ticker="MSBEEURP">
<polygon fill="#eaeaea" stroke="#ffffff" stroke-width="0.5" stroke-linecap="round" stroke-linejoin="round" stroke-miterlimit="10" points="253.896,75.502 249.22,75.502 253.896,79.947 " /> </g>
                <g id="France" code="FR" ticker="MSFREURP">
<polygon fill="#eaeaea" stroke="#ffffff" stroke-width="0.5" stroke-linecap="round" stroke-linejoin="round" stroke-miterlimit="10" points="255.563,87.061 258.397,84.227 253.896,79.947 249.22,75.502 240.071,84.651 243.729,88.308 243.729,94.676 249.673,100.62256.116,94.176 252.282,90.343 " /> </g>
                <g id="Spain" code="ES" ticker="MSESEURP">
<polygon fill="#eaeaea" stroke="#ffffff" stroke-width="0.5" stroke-linecap="round" stroke-linejoin="round" stroke-miterlimit="10" points="243.729,94.676 235.411,94.676 235.411,96.78 237.386,96.78 237.386,103.978 241.85,108.442 249.673,100.62 " /> </g>
                <g id="Portugal" code="PT" ticker="MSPTEURP">
<polygon fill="#eaeaea" stroke="#ffffff" stroke-width="0.5" stroke-linecap="round" stroke-linejoin="round" stroke-miterlimit="10" points="235.411,96.78 235.411,102.004 237.386,103.978 237.386,96.78 " /> </g>
                <g id="United_Kingdom" code="UK" ticker="MSGBGBPP">
<polygon fill="#eaeaea" stroke="#ffffff" stroke-width="0.5" stroke-linecap="round" stroke-linejoin="round" stroke-miterlimit="10" points="238.305,63.804 238.305,81.306 247.056,72.556 " /> </g>
                <g id="Ireland" code="IE" ticker="MSIEEURP">
<polygon fill="#eaeaea" stroke="#ffffff" stroke-width="0.5" stroke-linecap="round" stroke-linejoin="round" stroke-miterlimit="10" points="112.622,258.746 112.622,258.736 112.612,258.736 " />
<polygon fill="#eaeaea" stroke="#ffffff" stroke-width="0.5" stroke-linecap="round" stroke-linejoin="round" stroke-miterlimit="10" points="106.176,145.212 106.155,145.233 106.176,145.233 " />
<polygon fill="#eaeaea" stroke="#ffffff" stroke-width="0.5" stroke-linecap="round" stroke-linejoin="round" stroke-miterlimit="10" points="110.525,164.983 110.515,164.972 110.515,164.994 " />
<polygon fill="#eaeaea" stroke="#ffffff" stroke-width="0.5" stroke-linecap="round" stroke-linejoin="round" stroke-miterlimit="10" points="101.905,149.482 101.894,149.495 101.905,149.495 " />
<polygon fill="#eaeaea" stroke="#ffffff" stroke-width="0.5" stroke-linecap="round" stroke-linejoin="round" stroke-miterlimit="10" points="235.798,69.325 229.928,75.195 235.798,75.195 " />
<polygon fill="#eaeaea" stroke="#ffffff" stroke-width="0.5" stroke-linecap="round" stroke-linejoin="round" stroke-miterlimit="10" points="296.942,184.105 296.942,184.101 296.938,184.105 " /> </g>
            </g>
        </g>
    </svg>